<?xml version="1.0" standalone="no"?>
<!DOCTYPE svg PUBLIC "-//W3C//DTD SVG 20010904//EN"
 "http://www.w3.org/TR/2001/REC-SVG-20010904/DTD/svg10.dtd">
<svg version="1.0" xmlns="http://www.w3.org/2000/svg"
 width="400.000000pt" height="390.000000pt" viewBox="0 0 400.000000 390.000000"
 preserveAspectRatio="xMidYMid meet">
<metadata>
Created by potrace 1.12, written by Peter Selinger 2001-2015
</metadata>
<g transform="translate(0.000000,390.000000) scale(0.100000,-0.100000)"
fill="#000000" stroke="none">
<path d="M3755 3786 c-55 -34 -126 -80 -158 -103 -49 -35 -55 -42 -42 -53 13
-11 14 -10 8 5 -5 15 -3 17 11 12 9 -4 15 -3 11 2 -3 5 -2 12 3 15 4 2 8 -6 8
-20 0 -13 -4 -24 -9 -24 -5 0 -4 -7 3 -15 10 -12 9 -16 -5 -21 -9 -4 -21 -2
-28 5 -14 14 -30 15 -22 1 9 -14 -8 -13 -23 2 -9 9 -12 9 -12 0 0 -7 -6 -12
-12 -12 -7 1 -3 9 10 20 14 11 30 16 40 13 15 -6 15 -4 4 9 -12 15 -23 10
-103 -49 -49 -36 -87 -68 -85 -71 3 -3 1 -11 -5 -19 -9 -9 -8 -13 0 -13 6 0
11 -10 11 -23 0 -18 -6 -22 -29 -22 -16 -1 -27 3 -24 8 3 5 -1 14 -8 19 -11 8
-10 9 4 4 11 -3 16 -2 12 4 -11 17 7 11 22 -7 13 -17 13 -16 4 3 -7 15 -7 24
1 32 7 7 8 12 4 12 -12 0 -105 -74 -106 -84 0 -5 6 -3 14 3 19 16 31 -16 14
-37 -10 -12 -10 -14 0 -8 6 4 12 2 12 -3 0 -6 -6 -11 -12 -11 -10 0 -9 -3 1
-9 8 -5 -2 -8 -28 -6 -24 1 -42 -2 -42 -9 -1 -6 -2 -24 -3 -41 0 -16 -6 -29
-12 -28 -7 1 -25 -2 -42 -6 -24 -7 -32 -6 -38 7 -4 10 -6 20 -6 25 4 16 -12 5
-67 -45 -31 -28 -55 -55 -53 -60 1 -5 -2 -7 -7 -4 -5 4 -58 -40 -117 -96 -59
-57 -138 -132 -176 -167 -37 -35 -65 -68 -61 -74 3 -5 1 -7 -5 -4 -5 4 -22 -8
-37 -25 -15 -18 -65 -72 -111 -119 -45 -48 -80 -90 -77 -93 23 -23 -10 -88
-36 -72 -12 8 -3 36 11 36 6 0 7 -7 4 -16 -3 -8 -2 -13 3 -10 11 7 21 56 12
56 -14 0 -71 -67 -64 -75 5 -4 3 -5 -3 -2 -15 9 -48 -39 -34 -48 6 -4 9 -1 8
7 -2 7 3 12 10 10 8 -1 11 2 8 7 -3 5 9 11 27 14 33 5 52 -2 29 -10 -10 -4
-10 -8 -1 -19 9 -12 15 -12 27 -2 13 11 15 10 10 -9 -5 -17 2 -27 28 -45 19
-13 34 -29 34 -35 0 -7 11 -20 25 -29 13 -9 27 -26 31 -37 10 -32 41 -69 48
-58 4 5 2 12 -4 16 -5 3 -10 21 -10 38 l1 32 19 -24 c11 -13 20 -18 20 -12 0
6 7 11 15 11 12 0 13 -3 3 -19 -7 -11 -16 -19 -21 -18 -5 1 -11 -5 -12 -13 -2
-8 -6 -24 -11 -35 -11 -29 -7 -24 111 130 105 139 196 257 235 305 22 27 19
57 -5 57 -12 0 -12 -4 2 -19 16 -18 16 -18 0 -12 -10 3 -17 3 -16 -2 1 -5 1
-18 0 -29 -1 -17 -3 -18 -12 -5 -9 13 -10 12 -5 -3 5 -15 2 -17 -15 -12 -18 6
-20 4 -14 -15 5 -15 3 -20 -3 -16 -6 3 -14 1 -18 -5 -5 -8 -3 -9 6 -4 9 5 11
4 6 -4 -4 -6 -11 -9 -16 -6 -4 3 -10 -1 -13 -7 -2 -7 -4 12 -3 43 0 51 3 57
22 57 21 0 21 -1 3 -19 -11 -11 -19 -27 -18 -36 0 -15 2 -15 9 2 10 25 43 52
56 48 7 -2 10 13 9 41 l-3 44 35 -4 c40 -5 69 15 50 36 -10 10 -8 10 8 0 21
-12 20 -12 -5 -40 -14 -15 -28 -23 -31 -18 -4 6 -9 6 -12 1 -3 -5 -2 -15 3
-22 6 -10 17 -4 43 25 65 73 87 102 87 115 0 7 3 10 6 6 8 -8 44 35 37 46 -7
11 -22 -2 -43 -36 l-19 -31 2 39 c2 39 3 40 40 40 43 1 28 -12 228 205 194
211 337 347 531 508 100 83 104 88 88 107 -17 20 -33 8 -20 -14 11 -22 4 -32
-18 -24 -10 4 -13 2 -8 -5 4 -7 2 -12 -3 -12 -6 0 -12 5 -12 10 -1 6 -2 14 -3
20 -2 19 -38 52 -51 46 -7 -2 -16 1 -18 8 -6 16 24 16 35 1 4 -5 11 -6 15 -1
4 5 2 11 -4 13 -7 3 -13 9 -13 15 0 6 7 7 16 4 8 -3 12 -2 9 4 -3 6 -1 10 4
10 6 0 11 -7 11 -16 0 -8 4 -13 9 -10 17 11 20 -22 4 -36 -15 -11 -16 -11 -9
7 6 17 5 18 -6 7 -11 -11 -10 -16 4 -26 10 -7 16 -16 13 -19 -3 -4 -2 -5 2 -2
4 3 8 11 9 18 1 7 3 17 5 24 4 12 -32 74 -41 72 -3 0 -50 -29 -105 -63z m30
-6 c-3 -5 -1 -10 5 -10 6 0 8 -4 5 -10 -3 -5 -2 -10 4 -10 5 0 11 6 14 13 3 8
10 7 26 -7 11 -11 19 -22 16 -24 -3 -3 2 -17 11 -31 9 -14 13 -23 9 -19 -4 4
-13 1 -19 -8 -10 -13 -11 -10 -10 13 2 45 -10 60 -50 57 -19 -2 -38 1 -42 7
-7 13 -34 -8 -34 -27 0 -14 -36 -29 -60 -26 -11 2 -10 -1 3 -8 9 -6 15 -15 13
-19 -7 -10 -64 -12 -70 -2 -5 8 50 44 71 47 6 1 24 14 39 28 23 20 31 23 43
13 12 -9 13 -9 7 1 -8 14 0 32 15 32 6 0 7 -4 4 -10z m-25 -60 c0 -5 -5 -10
-11 -10 -5 0 -7 5 -4 10 3 6 8 10 11 10 2 0 4 -4 4 -10z m47 -64 l28 5 -30
-31 c-16 -17 -35 -28 -42 -26 -7 3 -19 -3 -25 -14 -18 -28 -26 -25 -20 6 4 21
9 25 35 22 19 -2 32 2 35 11 3 9 0 11 -8 6 -9 -5 -11 -4 -6 3 4 7 1 12 -8 12
-9 0 -16 5 -16 10 0 6 -10 10 -22 9 -13 0 -17 -3 -10 -6 10 -4 7 -9 -8 -20
-22 -16 -24 -42 -5 -88 8 -18 7 -19 -8 -6 -15 12 -17 12 -11 -3 5 -12 2 -15
-10 -10 -11 4 -15 12 -10 23 4 9 9 31 12 49 2 17 9 32 14 32 6 0 8 7 4 15 -3
8 4 21 17 30 20 14 23 13 44 -9 17 -19 30 -23 50 -20z m-335 -98 c-7 -7 -17
-13 -22 -13 -6 0 -10 -4 -10 -10 1 -5 12 -9 25 -7 15 2 25 -2 25 -8 0 -8 -11
-11 -30 -8 -16 3 -30 1 -30 -3 0 -4 -13 -7 -29 -7 l-29 1 27 22 c45 37 104 64
73 33z m48 -8 c0 -11 -4 -20 -9 -20 -5 0 -7 9 -4 20 3 11 7 20 9 20 2 0 4 -9
4 -20z m122 -56 c-6 -11 -11 -13 -16 -5 -4 6 -2 11 3 11 6 0 11 8 12 18 0 9 3
12 5 5 3 -7 1 -20 -4 -29z m-32 -10 c15 -15 -11 -36 -30 -24 -8 5 -11 12 -7
17 5 4 12 1 16 -6 5 -8 11 -9 15 -3 9 15 -20 22 -56 15 -19 -4 -29 -2 -25 4 8
13 74 10 87 -3z m-67 -59 c-2 -5 3 -1 11 9 9 11 19 16 23 12 4 -3 -3 -16 -15
-28 -13 -14 -22 -17 -22 -10 0 7 -5 10 -10 7 -6 -4 -8 -11 -4 -16 8 -14 -68
-90 -84 -84 -8 3 -12 0 -10 -7 6 -17 -32 -58 -53 -58 -21 0 -95 -67 -85 -78 4
-4 12 1 17 10 14 25 71 64 63 44 -3 -9 -11 -16 -18 -16 -6 0 -22 -16 -35 -36
-14 -20 -35 -40 -48 -45 -13 -5 -23 -17 -23 -28 0 -10 -7 -24 -15 -31 -13 -11
-18 -10 -29 6 -15 19 -10 48 6 38 5 -3 7 -13 4 -21 -4 -9 -2 -11 6 -7 7 5 8 3
3 -6 -5 -8 -4 -11 3 -6 6 4 9 13 6 21 -3 7 4 22 15 32 26 21 27 40 4 46 -12 3
-10 5 7 6 25 1 57 46 40 56 -5 3 -10 -1 -13 -7 -3 -7 -5 -4 -4 8 1 18 7 20 36
18 34 -3 60 15 61 41 0 6 -4 3 -10 -5 -6 -10 -9 -5 -8 18 1 18 4 32 7 32 12 0
30 -52 24 -68 -4 -13 -2 -12 9 2 13 17 13 22 2 34 -16 16 -18 32 -4 32 6 0 10
-6 10 -12 0 -10 2 -10 9 0 4 8 11 13 15 13 3 -1 5 0 4 2 -9 11 33 36 49 30 17
-7 17 -6 0 11 -17 18 -18 18 -32 0 -14 -18 -14 -18 -15 6 0 20 5 25 25 26 14
1 22 -2 19 -7 -3 -5 2 -9 11 -9 9 0 13 5 10 10 -3 6 1 10 10 10 14 0 16 6 10
28 -6 26 -6 26 8 7 9 -11 13 -24 10 -30z m17 35 c0 -5 -4 -10 -10 -10 -5 0
-10 5 -10 10 0 6 5 10 10 10 6 0 10 -4 10 -10z m-480 -220 c0 -5 -7 -10 -16
-10 -8 0 -12 5 -9 10 3 6 10 10 16 10 5 0 9 -4 9 -10z m-46 -25 c-7 -16 -24
-21 -24 -6 0 8 7 13 27 20 1 1 0 -6 -3 -14z m85 -18 c0 -21 -1 -21 -9 -2 -12
28 -12 37 0 30 6 -3 10 -16 9 -28z m-70 -8 c-19 -12 -47 -11 -55 2 -4 7 0 9
14 5 11 -4 23 -2 27 4 3 6 11 7 17 4 6 -4 5 -10 -3 -15z m41 7 c0 -3 -4 -8
-10 -11 -5 -3 -10 -1 -10 4 0 6 5 11 10 11 6 0 10 -2 10 -4z m130 -25 c0 -6
-4 -13 -10 -16 -5 -3 -10 1 -10 9 0 9 5 16 10 16 6 0 10 -4 10 -9z m-260 -29
c0 -19 -36 -47 -44 -33 -6 10 22 51 35 51 5 0 9 -8 9 -18z m200 -50 c0 -10
-22 -32 -32 -32 -5 0 -3 9 4 20 13 20 28 27 28 12z m-291 -28 c-6 -8 -7 -14
-2 -14 5 0 10 -6 10 -14 0 -9 -11 -13 -35 -12 -36 2 -44 -7 -46 -52 -1 -22 -6
-26 -33 -26 -39 -1 -48 -10 -48 -49 0 -28 -3 -31 -32 -32 -41 -1 -47 -7 -45
-50 1 -34 0 -35 -29 -30 -41 7 -55 -6 -53 -49 2 -30 -1 -35 -17 -33 -10 2 -22
6 -25 10 -4 4 -14 2 -23 -5 -9 -7 -6 -1 6 12 18 20 24 21 37 10 10 -7 16 -8
16 -2 0 6 -5 14 -10 17 -15 9 32 63 49 57 10 -4 13 -1 8 11 -4 11 -2 14 8 11
8 -4 20 8 30 30 17 36 114 126 135 126 6 0 9 -4 5 -9 -3 -5 -1 -12 4 -15 10
-7 9 13 -1 30 -8 13 35 58 45 47 4 -3 7 1 7 11 0 9 5 14 10 11 6 -4 7 -11 4
-17 -4 -7 -2 -8 4 -4 6 4 9 13 5 21 -3 8 0 15 7 15 6 0 8 5 4 12 -4 7 -3 8 5
4 9 -6 9 -11 0 -22z m331 -4 c0 -5 -9 -14 -20 -20 -16 -8 -20 -8 -20 4 0 8 8
17 18 19 9 3 18 5 20 6 1 0 2 -3 2 -9z m-27 -57 c-3 -8 -12 -12 -19 -9 -7 3
-16 1 -19 -4 -3 -4 -1 -10 4 -12 5 -1 3 -9 -5 -16 -12 -11 -14 -9 -14 7 0 11
5 23 11 27 8 4 7 9 -2 15 -8 5 -2 7 18 7 23 -1 30 -5 26 -15z m-73 -87 c0 -2
-8 -10 -17 -17 -16 -13 -17 -12 -4 4 13 16 21 21 21 13z m-78 -71 c-4 -5 -7
-14 -7 -19 0 -16 -19 -16 -39 -1 -24 18 -13 33 23 31 17 0 27 -5 23 -11z
m-572 -190 c-15 -18 1 -20 19 -2 10 10 12 8 9 -7 -2 -13 -12 -20 -30 -20 -15
-1 -24 3 -21 9 10 18 25 35 30 35 3 0 0 -7 -7 -15z m310 -55 c-19 -12 -40 -13
-40 -1 0 9 40 20 50 13 2 -2 -2 -7 -10 -12z m40 -30 c0 -5 -3 -10 -7 -10 -5 0
-18 -3 -30 -6 -13 -4 -23 -2 -23 4 0 9 9 13 53 21 4 0 7 -3 7 -9z m-27 -49
c-9 -11 -20 -18 -24 -15 -4 2 -12 -10 -18 -26 -5 -17 -15 -30 -21 -30 -6 0 -9
-4 -5 -9 3 -5 1 -12 -4 -15 -5 -4 -13 -1 -17 5 -5 8 -3 9 6 4 9 -5 11 -4 6 4
-10 15 -27 4 -20 -13 3 -8 -8 -33 -25 -57 -17 -23 -31 -38 -31 -32 0 5 -7 10
-15 10 -8 0 -15 -4 -15 -9 0 -5 -5 -6 -11 -3 -6 4 -8 14 -5 22 3 8 1 11 -4 8
-6 -3 -10 -1 -10 4 0 6 12 11 26 11 17 0 23 -4 18 -12 -5 -9 -2 -9 9 1 13 11
17 11 17 1 0 -33 13 4 15 42 2 40 4 43 34 44 38 1 41 4 45 40 2 18 9 29 19 29
9 0 19 4 23 8 16 16 23 6 7 -12z"/>
<path d="M3625 3680 c-3 -5 -2 -10 4 -10 5 0 13 5 16 10 3 6 2 10 -4 10 -5 0
-13 -4 -16 -10z"/>
<path d="M3410 3520 c-9 -6 -10 -10 -3 -10 6 0 15 5 18 10 8 12 4 12 -15 0z"/>
<path d="M3450 3335 c-7 -8 -8 -15 -2 -15 5 0 15 7 22 15 7 8 8 15 2 15 -5 0
-15 -7 -22 -15z"/>
<path d="M3280 3149 c0 -5 5 -7 10 -4 6 3 10 8 10 11 0 2 -4 4 -10 4 -5 0 -10
-5 -10 -11z"/>
<path d="M2930 3128 c-12 -22 -12 -22 6 -6 10 10 15 20 12 24 -4 3 -12 -5 -18
-18z"/>
<path d="M2664 2888 c-5 -7 -2 -9 8 -5 9 3 21 0 27 -6 8 -8 11 -8 11 0 0 6 -7
14 -16 17 -21 8 -22 8 -30 -6z"/>
<path d="M2610 2805 c-11 -13 -10 -14 4 -9 9 3 16 10 16 15 0 13 -6 11 -20 -6z"/>
<path d="M2986 2838 c3 -5 10 -6 15 -3 13 9 11 12 -6 12 -8 0 -12 -4 -9 -9z"/>
<path d="M3560 3600 c0 -5 7 -10 16 -10 8 0 12 5 9 10 -3 6 -10 10 -16 10 -5
0 -9 -4 -9 -10z"/>
<path d="M3220 3399 c0 -5 -6 -9 -12 -9 -18 0 -101 -75 -104 -94 -3 -19 19
-27 56 -19 19 3 30 12 30 22 0 14 -2 14 -10 1 -8 -13 -11 -13 -27 3 -16 16
-16 18 1 35 17 16 18 16 12 -8 -6 -23 -6 -23 5 -5 16 27 29 34 48 28 11 -4 9
0 -4 11 -16 13 -17 15 -2 10 9 -3 17 -1 17 5 0 6 6 11 14 11 26 0 25 15 0 16
-13 1 -24 -2 -24 -7z m-73 -115 c-3 -3 -12 -4 -19 -1 -8 3 -5 6 6 6 11 1 17
-2 13 -5z"/>
<path d="M40 1405 l0 -1365 1285 0 c883 0 1285 3 1285 10 0 6 -10 24 -22 40
l-22 30 22 30 22 29 0 701 0 700 -115 0 -114 0 2 -655 2 -655 -1057 0 -1058 0
0 1140 0 1140 900 0 900 0 0 110 0 110 -1015 0 -1014 0 -1 -1365z"/>
<path d="M2900 2759 c0 -5 5 -7 10 -4 6 3 10 8 10 11 0 2 -4 4 -10 4 -5 0 -10
-5 -10 -11z"/>
<path d="M2204 2408 l-19 -23 23 19 c21 18 27 26 19 26 -2 0 -12 -10 -23 -22z"/>
<path d="M2144 2336 c-22 -24 -54 -62 -72 -85 -29 -36 -31 -41 -13 -38 11 2
24 6 27 10 4 4 22 -3 41 -14 18 -11 33 -17 33 -13 0 4 8 0 18 -8 28 -25 50
-29 55 -10 2 9 3 6 2 -8 -2 -18 7 -33 35 -57 20 -18 43 -46 50 -63 14 -34 22
-37 41 -14 12 15 11 16 -11 10 -18 -5 -21 -5 -11 3 8 5 28 8 43 6 28 -3 28 -3
24 41 -2 25 -5 46 -7 48 -11 9 -79 -8 -79 -20 0 -18 -14 -18 -30 1 -10 13 -9
15 9 15 11 0 21 5 21 11 0 7 8 18 17 25 10 7 14 16 10 20 -4 5 -13 2 -18 -6
-8 -12 -10 -10 -6 8 4 18 0 25 -19 32 -13 5 -24 14 -24 19 0 5 -9 13 -20 16
-11 3 -20 15 -20 25 0 13 -5 17 -15 14 -8 -4 -15 -1 -15 6 0 10 -3 10 -14 1
-10 -8 -16 -9 -21 -1 -3 5 -3 10 2 10 4 0 1 4 -7 10 -12 7 -12 12 4 29 11 12
17 21 14 21 -3 0 -23 -20 -44 -44z m12 -59 c1 -45 -2 -53 -18 -54 -11 -1 -22
5 -25 13 -5 13 -8 13 -24 -2 -11 -9 -19 -12 -19 -6 0 6 3 12 8 14 4 2 22 22
40 46 19 23 34 42 35 42 1 0 2 -24 3 -53z m114 -42 c10 -13 9 -15 -9 -15 -12
0 -21 6 -21 15 0 8 4 15 9 15 5 0 14 -7 21 -15z m-57 -22 c-7 -2 -19 -2 -25 0
-7 3 -2 5 12 5 14 0 19 -2 13 -5z"/>
<path d="M2117 2273 c-4 -3 -7 -11 -7 -17 0 -6 5 -5 12 2 6 6 9 14 7 17 -3 3
-9 2 -12 -2z"/>
<path d="M2132 2250 c-7 -11 -8 -20 -3 -20 9 0 24 30 18 36 -1 2 -8 -6 -15
-16z"/>
<path d="M2019 2183 c-13 -16 -12 -17 4 -4 9 7 17 15 17 17 0 8 -8 3 -21 -13z"/>
<path d="M2355 2160 c-3 -5 1 -10 9 -10 9 0 16 5 16 10 0 6 -4 10 -9 10 -6 0
-13 -4 -16 -10z"/>
<path d="M933 2145 c-101 -28 -223 -105 -335 -213 l-48 -46 58 -27 c69 -33
184 -136 237 -213 21 -31 42 -56 47 -56 4 0 7 -3 6 -7 -2 -5 12 -34 31 -66 25
-45 36 -56 43 -45 7 9 8 8 4 -6 -7 -21 33 -108 46 -100 4 3 8 10 8 15 0 6 -4
8 -9 5 -4 -3 -6 7 -4 22 3 23 2 24 -6 7 -5 -11 -10 -15 -10 -8 -1 6 -4 20 -8
30 -3 10 -3 15 2 11 11 -11 35 11 35 31 -1 11 -5 9 -14 -8 l-13 -24 -12 21
c-6 12 -17 21 -23 19 -7 -1 -14 12 -18 28 -3 17 -10 29 -15 28 -6 -2 -10 2 -9
7 1 6 2 17 3 25 0 8 8 15 16 15 11 0 15 -12 15 -48 l0 -49 40 3 39 2 -3 -67
c-1 -37 -6 -73 -10 -79 -4 -6 4 -33 18 -59 13 -26 37 -77 51 -113 15 -35 34
-70 44 -78 9 -7 10 -10 3 -7 -9 5 -8 -4 4 -32 39 -90 143 -355 149 -378 1 -5
5 -23 10 -38 l8 -28 31 29 c44 42 177 139 294 217 28 19 52 39 52 45 0 5 4 9
8 7 5 -1 29 11 54 27 32 20 51 41 62 69 8 22 13 44 10 49 -3 5 -1 7 4 6 12 -3
63 87 55 96 -4 3 -12 -3 -20 -14 -12 -17 -23 -19 -86 -16 -81 4 -177 24 -177
35 0 4 -19 13 -42 20 -24 7 -50 19 -58 25 -27 23 -48 26 -53 8 -2 -9 -3 -5 -1
9 2 20 -6 32 -36 55 -22 16 -40 35 -40 42 0 6 -4 12 -9 12 -5 0 -24 23 -42 50
-24 36 -35 47 -42 38 -6 -10 -7 -9 -4 2 2 8 -5 32 -16 53 -43 83 -57 183 -56
390 l2 168 20 -18 c20 -17 20 -16 -1 13 -30 44 -86 91 -129 109 -43 18 -91 18
-160 0z m27 -25 c0 -12 -10 -25 -22 -31 l-23 -10 23 5 c12 2 22 -1 22 -7 0 -7
-17 -12 -40 -12 -23 -1 -34 2 -27 7 6 4 9 8 5 8 -3 0 -14 3 -22 6 -12 4 -15 2
-10 -9 4 -12 -2 -15 -33 -14 l-38 2 2 -41 c1 -40 0 -42 -30 -40 -17 1 -33 8
-35 15 -4 11 -6 11 -12 0 -8 -11 -50 -24 -50 -15 0 11 73 45 82 39 8 -4 9 0 5
11 -6 14 -3 17 8 12 9 -3 13 -2 10 4 -8 13 54 50 73 42 10 -3 13 -1 8 6 -5 8
-2 10 8 6 9 -3 16 -1 16 5 0 6 3 10 8 9 4 0 14 1 22 5 12 4 34 12 48 16 1 1 2
-8 2 -19z m130 6 c0 -11 -19 -15 -25 -6 -3 5 1 10 9 10 9 0 16 -2 16 -4z m94
-54 c3 -5 -9 -9 -26 -8 -24 1 -32 6 -34 24 -4 22 -3 22 25 7 17 -8 32 -19 35
-23z m-109 8 c18 -8 17 -9 -7 -9 -16 -1 -28 4 -28 9 0 12 8 12 35 0z m-397
-122 c-3 -7 -13 -15 -24 -17 -16 -3 -17 -1 -5 13 16 19 34 21 29 4z m-38 -33
c6 -8 9 -19 5 -26 -5 -8 -1 -9 15 -4 15 5 20 4 16 -4 -9 -14 -48 -14 -64 -1
-7 5 -6 3 2 -6 11 -12 23 -15 50 -10 20 4 36 11 36 16 0 6 4 10 8 10 5 0 9
-15 9 -32 0 -18 -2 -25 -4 -15 -3 9 -8 15 -13 12 -5 -3 -7 -12 -3 -20 7 -20 3
-19 -66 16 -54 28 -59 33 -45 46 11 11 18 12 28 4 9 -8 13 -7 13 4 0 8 -4 12
-9 9 -4 -3 -8 0 -8 5 0 16 15 13 30 -4z m80 -5 c0 -5 -7 -10 -16 -10 -8 0 -12
5 -9 10 3 6 10 10 16 10 5 0 9 -4 9 -10z m71 -109 c1 -3 2 -22 3 -41 2 -31 5
-35 26 -32 14 2 22 1 18 -3 -4 -4 -3 -16 3 -26 15 -29 -9 -20 -42 16 -16 18
-23 32 -17 36 6 4 1 10 -11 14 -11 3 -21 11 -21 16 0 5 -9 9 -19 9 -41 0 -27
15 15 16 24 1 44 -1 45 -5z m87 -106 c0 -15 -5 -22 -12 -18 -6 4 -5 -1 3 -10
11 -14 11 -17 0 -17 -8 0 -20 4 -27 9 -11 6 -10 10 3 15 11 4 15 12 11 22 -3
9 -3 20 0 25 9 15 22 1 22 -26z m68 -64 c-12 -11 -17 -11 -35 1 -19 14 -19 14
14 14 29 -1 32 -3 21 -15z m-65 -8 c13 -16 12 -17 -3 -4 -10 7 -18 15 -18 17
0 8 8 3 21 -13z m79 -13 c0 -5 -5 -10 -11 -10 -5 0 -7 5 -4 10 3 6 8 10 11 10
2 0 4 -4 4 -10z m247 -72 c-3 -7 -5 -2 -5 12 0 14 2 19 5 13 2 -7 2 -19 0 -25z
m26 -85 c3 -24 1 -43 -4 -43 -5 0 -9 18 -9 40 0 22 -4 40 -10 40 -5 0 -10 8
-10 17 0 35 27 -11 33 -54z m54 -85 c-3 -8 -6 -5 -6 6 -1 11 2 17 5 13 3 -3 4
-12 1 -19z m28 -28 c3 -5 1 -10 -4 -10 -6 0 -11 5 -11 10 0 6 2 10 4 10 3 0 8
-4 11 -10z m-222 -27 c20 -17 20 -17 13 2 -5 15 -4 17 5 8 9 -9 6 -19 -10 -42
-24 -33 -22 -41 3 -16 13 13 14 10 13 -35 -1 -58 3 -64 47 -64 27 0 31 -2 20
-13 -7 -7 -17 -13 -23 -13 -6 0 -11 -7 -11 -16 0 -14 -3 -14 -15 -4 -8 7 -15
18 -14 24 0 7 2 6 6 -2 2 -6 9 -10 14 -6 16 10 10 24 -11 24 -13 0 -20 7 -20
19 0 11 -5 23 -11 26 -6 4 -8 13 -5 21 3 8 0 13 -6 11 -12 -2 -30 51 -24 70 3
6 0 14 -7 17 -8 3 -7 5 2 5 8 1 23 -7 34 -16z m297 -48 c10 -13 9 -15 -9 -15
-12 0 -21 6 -21 15 0 8 4 15 9 15 5 0 14 -7 21 -15z m103 -92 c-7 -2 -19 -2
-25 0 -7 3 -2 5 12 5 14 0 19 -2 13 -5z m-308 -59 c-13 -20 -14 -26 -3 -22 10
4 14 -2 13 -21 -1 -14 2 -36 7 -49 5 -15 4 -21 -2 -17 -6 3 -10 0 -10 -7 0 -9
-3 -9 -10 2 -5 8 -7 23 -4 34 4 11 2 16 -4 12 -27 -16 -19 57 10 91 19 23 21
5 3 -23z m442 0 c-3 -3 -12 -4 -19 -1 -8 3 -5 6 6 6 11 1 17 -2 13 -5z m53
-14 c0 -5 -5 -10 -11 -10 -5 0 -7 5 -4 10 3 6 8 10 11 10 2 0 4 -4 4 -10z
m163 3 c3 -5 -15 -6 -40 -4 -26 2 -43 -1 -40 -6 3 -5 -11 -7 -31 -4 l-37 5 35
7 c50 9 108 10 113 2z m-8 -23 c4 -6 1 -9 -7 -8 -8 2 -13 -7 -14 -24 -1 -15
-6 -34 -12 -41 -7 -8 -10 -16 -7 -19 3 -3 -4 -13 -15 -23 -16 -15 -20 -15 -15
-3 3 8 -1 22 -9 31 -14 13 -14 16 0 21 11 4 13 13 9 28 -5 17 -4 19 4 8 5 -8
8 -28 5 -45 -4 -29 -4 -29 6 -5 6 14 9 38 6 54 -5 22 -3 27 9 22 8 -3 15 -1
15 4 0 13 17 13 25 0z m-579 -128 c17 -15 20 -28 20 -95 0 -66 -3 -75 -13 -61
-13 17 -17 44 -14 73 2 7 -2 10 -8 6 -8 -4 -8 2 -1 20 5 14 6 24 2 21 -4 -2
-14 -1 -22 5 -12 7 -12 9 3 9 15 0 16 3 7 20 -13 24 -2 25 26 2z m476 0 c-7
-2 -12 -9 -12 -15 0 -18 -58 -41 -73 -29 -8 7 -16 5 -26 -5 -12 -13 -11 -14 7
-9 24 8 37 -7 19 -22 -28 -23 -40 -17 -42 19 -2 34 0 37 24 34 29 -3 93 24 85
37 -3 4 3 5 12 1 11 -4 13 -8 6 -11z m-142 -113 c0 -8 -15 -13 -32 -10 -5 0
-8 -5 -8 -13 0 -8 -13 -19 -30 -25 -16 -5 -30 -14 -30 -19 0 -6 -16 -21 -37
-34 -20 -12 -50 -32 -66 -42 -30 -20 -31 -20 -23 0 4 10 8 21 9 24 1 3 -2 6
-7 7 -9 1 -26 23 -26 34 0 9 83 5 98 -5 7 -4 16 -5 19 -2 4 3 1 6 -5 6 -7 0
-12 5 -12 11 0 8 5 7 16 -1 13 -11 16 -10 21 8 3 13 13 22 24 22 11 0 19 7 19
15 0 19 -13 19 -53 0 l-32 -16 25 21 c19 17 32 20 60 15 21 -3 30 -2 22 3 -9
6 -4 9 17 10 17 0 31 -4 31 -9z m-285 -105 c9 -20 15 -44 12 -55 -3 -10 -1
-17 3 -14 5 3 11 1 14 -4 4 -5 2 -12 -3 -15 -13 -8 -29 16 -25 37 1 10 -7 34
-18 53 -11 19 -16 34 -10 34 5 0 17 -16 27 -36z m22 19 c3 -10 13 -26 21 -35
8 -10 10 -18 5 -18 -6 0 -20 16 -32 35 -11 19 -16 35 -10 35 5 0 12 -8 16 -17z
m26 -77 c4 -10 1 -13 -9 -9 -7 3 -14 9 -14 14 0 14 17 10 23 -5z"/>
<path d="M910 2110 c0 -5 7 -7 15 -4 8 4 15 8 15 10 0 2 -7 4 -15 4 -8 0 -15
-4 -15 -10z"/>
<path d="M820 2080 c-9 -6 -10 -10 -3 -10 6 0 15 5 18 10 8 12 4 12 -15 0z"/>
<path d="M775 2020 c-4 -6 -16 -8 -28 -5 -12 2 -16 2 -9 -1 6 -3 10 -10 6 -15
-10 -17 13 -9 31 11 10 11 15 20 12 20 -3 0 -9 -5 -12 -10z"/>
<path d="M1136 2082 c-3 -4 4 -9 15 -9 23 -2 25 3 4 10 -8 4 -16 3 -19 -1z"/>
<path d="M761 1794 c6 -7 16 -11 21 -8 11 7 3 17 -18 20 -12 2 -13 -1 -3 -12z"/>
<path d="M1070 1300 c0 -5 5 -10 10 -10 6 0 10 5 10 10 0 6 -4 10 -10 10 -5 0
-10 -4 -10 -10z"/>
<path d="M1250 905 c0 -5 5 -17 10 -25 5 -8 10 -10 10 -5 0 6 -5 17 -10 25 -5
8 -10 11 -10 5z"/>
<path d="M1624 884 c-18 -14 -18 -15 4 -4 12 6 22 13 22 15 0 8 -5 6 -26 -11z"/>
<path d="M1370 766 c0 -2 7 -7 16 -10 8 -3 12 -2 9 4 -6 10 -25 14 -25 6z"/>
<path d="M1413 765 c4 -5 -1 -17 -10 -28 -18 -19 -17 -19 5 -6 25 16 28 25 10
35 -7 4 -10 3 -5 -1z"/>
<path d="M1966 2116 c-26 -32 -33 -47 -24 -52 7 -4 10 -4 6 1 -4 4 9 27 29 51
19 24 33 44 30 44 -2 0 -21 -20 -41 -44z"/>
<path d="M2416 2103 c-6 -14 -5 -15 5 -6 7 7 10 15 7 18 -3 3 -9 -2 -12 -12z"/>
<path d="M2430 2080 c0 -5 0 -12 0 -15 1 -12 -26 -33 -34 -27 -5 3 -7 -2 -3
-11 5 -13 1 -16 -15 -14 -11 1 -23 -5 -25 -13 -4 -13 -3 -13 6 0 5 8 13 11 17
7 4 -3 1 -13 -6 -22 -7 -8 -9 -15 -5 -15 4 0 1 -8 -6 -17 -13 -16 -12 -17 4
-4 9 7 17 18 17 23 0 5 10 20 23 34 13 13 31 38 41 54 15 26 15 30 2 30 -9 0
-16 -4 -16 -10z"/>
<path d="M1884 2008 c-16 -23 -53 -74 -82 -113 -35 -47 -51 -77 -48 -90 3 -11
1 -26 -3 -34 -11 -18 -3 -43 11 -35 6 4 9 1 6 -7 -7 -21 29 -84 57 -99 24 -13
90 -9 106 7 5 5 5 41 1 80 -5 40 -6 70 -3 68 2 -3 10 4 18 15 11 15 26 20 62
20 61 0 81 -20 101 -103 9 -34 20 -61 26 -60 6 1 11 -4 11 -12 0 -10 -5 -11
-18 -4 -15 7 -17 6 -13 -6 5 -11 2 -13 -10 -9 -9 3 -16 11 -16 17 0 6 -2 8 -5
5 -9 -9 7 -38 17 -32 6 4 8 1 6 -7 -3 -8 -10 -13 -16 -12 -6 1 -7 -7 -4 -19 5
-21 6 -21 13 -2 6 14 8 15 8 3 1 -23 -10 -31 -26 -18 -18 15 -70 -38 -54 -54
19 -19 12 -31 -7 -14 -23 21 -27 21 -59 0 -19 -13 -44 -17 -94 -16 -57 2 -82
9 -146 40 -63 31 -78 42 -77 60 0 12 -4 19 -9 16 -6 -4 -8 5 -5 21 7 34 2 33
-22 -6 -14 -23 -16 -36 -9 -50 5 -10 6 -18 1 -18 -8 0 -8 -110 0 -113 2 -1 18
-10 36 -19 37 -20 77 -23 87 -8 11 17 35 11 35 -9 0 -15 -5 -18 -22 -14 -13 3
-20 2 -16 -2 4 -4 20 -9 37 -11 16 -2 48 -10 72 -19 24 -8 56 -15 71 -15 23 0
27 4 24 23 -3 12 -5 32 -5 45 -1 19 -7 22 -43 23 -26 1 -34 4 -19 6 27 5 102
-7 84 -14 -7 -3 -13 -12 -13 -21 1 -14 4 -13 19 5 24 29 75 29 57 1 -12 -20
-26 -24 -26 -7 0 5 -4 7 -10 4 -5 -3 -10 -11 -10 -16 0 -6 5 -7 11 -3 8 4 9
-1 4 -16 -14 -43 14 -10 65 76 54 91 57 98 38 92 -7 -3 -15 -15 -18 -29 -4
-17 -8 -20 -12 -9 -3 8 -2 25 3 38 7 19 12 21 28 13 20 -11 20 -11 131 178 8
15 26 41 39 60 14 19 18 31 10 26 -20 -13 -49 -16 -49 -6 0 5 6 11 14 13 21 5
-61 125 -91 133 -13 3 -23 12 -23 20 0 8 -12 17 -27 21 -16 3 -37 10 -48 15
-25 12 -73 14 -102 4 -19 -6 -21 -4 -19 19 2 14 2 26 1 26 -1 0 -15 -19 -31
-42z m136 -19 c8 -1 -14 -5 -49 -8 -42 -4 -66 -11 -69 -20 -3 -8 0 -11 5 -8 6
4 10 -6 11 -23 1 -25 -3 -28 -26 -28 -55 1 -62 -1 -55 -19 5 -14 3 -15 -6 -7
-10 9 -9 18 3 43 9 17 19 31 22 31 2 0 -1 -10 -7 -22 -11 -22 -11 -22 7 -7 10
9 25 14 32 12 6 -3 12 0 12 6 0 6 -7 11 -16 11 -18 0 -14 24 4 26 24 3 27 5
15 12 -10 6 75 7 117 1z m182 -163 c9 -16 7 -18 -9 -14 -14 4 -19 -1 -21 -18
-1 -13 3 -24 9 -24 6 0 9 -6 6 -12 -17 -41 -15 -48 3 -15 25 45 44 50 21 5
-44 -87 -47 -86 -47 28 0 110 3 114 38 50z m-382 33 c0 -5 4 -8 8 -5 4 2 8 -4
8 -14 0 -14 -3 -16 -13 -8 -7 6 -13 6 -13 1 0 -5 -9 -9 -20 -10 -22 -2 -27 12
-8 23 7 5 8 3 3 -6 -5 -8 -4 -11 3 -6 6 4 9 13 5 21 -3 9 1 15 11 15 9 0 16
-5 16 -11z m120 -43 c0 -3 -4 -8 -10 -11 -5 -3 -10 -1 -10 4 0 6 5 11 10 11 6
0 10 -2 10 -4z m180 -6 c0 -5 -4 -10 -10 -10 -5 0 -10 5 -10 10 0 6 5 10 10
10 6 0 10 -4 10 -10z m80 -26 c0 -8 -4 -12 -10 -9 -5 3 -10 10 -10 16 0 5 5 9
10 9 6 0 10 -7 10 -16z m-50 -24 c0 -11 -7 -20 -15 -20 -17 0 -18 2 -9 24 9
23 24 20 24 -4z m-330 -60 c0 -37 2 -40 27 -40 20 0 24 -3 16 -11 -17 -17 -53
7 -53 36 0 13 -3 30 -6 39 -3 9 -1 16 5 16 6 0 11 -17 11 -40z m306 -98 c-18
-16 -18 -16 -6 6 6 13 14 21 18 18 3 -4 -2 -14 -12 -24z m-501 -12 c3 -5 1
-10 -4 -10 -6 0 -11 5 -11 10 0 6 2 10 4 10 3 0 8 -4 11 -10z m395 -105 c7 -8
16 -12 21 -9 5 3 4 -6 -2 -20 -13 -28 -2 -28 -144 -6 l-60 9 71 -5 c59 -4 75
-2 89 12 17 17 17 18 -1 25 -15 6 -16 8 -3 8 9 1 22 -6 29 -14z m-212 -42
c-10 -2 -26 -2 -35 0 -10 3 -2 5 17 5 19 0 27 -2 18 -5z m22 -43 c8 -5 11 -12
8 -16 -11 -10 -60 5 -53 16 8 12 26 12 45 0z"/>
<path d="M1870 1920 c0 -5 5 -10 11 -10 5 0 7 5 4 10 -3 6 -8 10 -11 10 -2 0
-4 -4 -4 -10z"/>
<path d="M2011 1454 c0 -11 3 -14 6 -6 3 7 2 16 -1 19 -3 4 -6 -2 -5 -13z"/>
<path d="M2302 1873 c-26 -38 -34 -53 -29 -53 2 0 16 18 31 40 29 45 28 56 -2
13z"/>
<path d="M1371 1784 c0 -11 3 -14 6 -6 3 7 2 16 -1 19 -3 4 -6 -2 -5 -13z"/>
<path d="M1710 1760 c-6 -11 -8 -20 -6 -20 3 0 10 9 16 20 6 11 8 20 6 20 -3
0 -10 -9 -16 -20z"/>
<path d="M1685 1720 c-3 -5 -1 -10 4 -10 6 0 11 5 11 10 0 6 -2 10 -4 10 -3 0
-8 -4 -11 -10z"/>
<path d="M1656 1675 c-9 -14 -13 -25 -8 -25 5 0 14 11 20 25 6 14 10 25 8 25
-2 0 -11 -11 -20 -25z"/>
<path d="M1441 1645 c0 -5 6 -21 14 -35 8 -14 14 -20 14 -15 0 6 -6 21 -14 35
-8 14 -14 21 -14 15z"/>
<path d="M1560 1525 c-22 -35 -22 -35 -2 -60 17 -21 21 -23 26 -9 4 9 4 19 1
22 -3 3 -5 0 -5 -7 0 -9 -4 -9 -14 1 -12 11 -12 14 2 19 10 3 17 18 18 37 1
18 0 32 -1 32 -2 0 -13 -16 -25 -35z"/>
<path d="M1947 1353 c-4 -3 -7 -11 -7 -17 0 -6 5 -5 12 2 6 6 9 14 7 17 -3 3
-9 2 -12 -2z"/>
<path d="M1926 1253 c-6 -14 -5 -15 5 -6 7 7 10 15 7 18 -3 3 -9 -2 -12 -12z"/>
<path d="M2595 129 c-4 -12 -2 -26 4 -32 8 -8 11 -2 11 21 0 37 -6 41 -15 11z"/>
</g>
</svg>
